#!OML:ASF F:\VICON\USERDATA\INSTALL\rory3\rory3.ASF
:FULLY-SPECIFIED
:DEGREES
94
root 15.0511 18.0663 -9.87273 -1.08128 -48.586 3.41705
lowerback 6.911 -0.151501 -2.2137
upperback -1.27809 -0.39411 0.0611825
thorax -5.19336 -0.126992 1.35208
lowerneck -22.9686 -3.96748 -10.285
upperneck 27.1853 -3.8012 5.8914
head 13.3137 -1.98881 3.35344
rclavicle 1.68718e-014 -5.56597e-015
rhumerus -34.1693 -10.1879 -84.1118
rradius 29.7952
rwrist 11.6065
rhand -10.7067 9.15555
rfingers 7.12502
rthumb 15.303 -20.2583
lclavicle 1.68718e-014 -5.56597e-015
lhumerus -35.3138 5.61506 85.0265
lradius 30.2253
lwrist -11.5658
lhand -16.2434 26.0368
lfingers 7.12502
lthumb 9.96538 55.7809
rfemur -11.4105 4.31491 22.384
rtibia 35.7444
rfoot -21.2951 -8.81905
rtoes 6.87909
lfemur -5.0634 -3.23351 -24.2857
ltibia 24.7081
lfoot -15.8312 4.82048
ltoes 2.49911
95
root 15.0414 18.0642 -9.87589 -0.964935 -48.4205 3.31028
lowerback 6.88432 -0.175499 -2.05528
upperback -1.25761 -0.411579 0.0554163
thorax -5.15692 -0.141065 1.25872
lowerneck -22.9899 -3.98059 -10.344
upperneck 27.278 -3.81637 5.94304
head 13.3609 -1.99648 3.38364
rclavicle -1.88224e-014 5.96354e-016
rhumerus -34.2109 -10.1454 -84.185
rradius 29.8364
rwrist 11.4627
rhand -10.8972 8.82037
rfingers 7.12502
rthumb 15.1196 -20.6074
lclavicle -1.88224e-014 5.96354e-016
lhumerus -35.2998 5.86742 84.8963
lradius 30.3256
lwrist -11.2726
lhand -15.8638 25.9731
lfingers 7.12502
lthumb 10.3316 55.6993
rfemur -11.4009 4.22804 22.4967
rtibia 35.7128
rfoot -21.3693 -8.80054
rtoes 7.23854
lfemur -5.13878 -3.43676 -24.1797
ltibia 24.8038
lfoot -15.8092 4.89068
ltoes 2.52737
96
root 15.0327 18.062 -9.88136 -0.89016 -48.3065 3.24085
lowerback 6.91729 -0.170795 -1.9159
upperback -1.22853 -0.397621 -0.0240138
thorax -5.14694 -0.139938 1.09641
lowerneck -22.9849 -3.98477 -10.2841
upperneck 27.2999 -3.87997 6.04235
head 13.3757 -2.00468 3.40235
rclavicle 7.96257e-014 4.37326e-015
rhumerus -34.1818 -10.3262 -84.2904
rradius 29.7228
rwrist 11.4787
rhand -11.1528 8.67868
rfingers 7.12502
rthumb 14.8733 -20.7674
lclavicle 7.96257e-014 4.37326e-015
lhumerus -35.2382 5.56898 84.8054
lradius 30.3935
lwrist -10.7879
lhand -16.0737 26.2481
lfingers 7.12502
lthumb 10.1291 55.9843
rfemur -11.4021 4.20221 22.5959
rtibia 35.6888
rfoot -21.344 -8.88752
rtoes 7.19248
lfemur -5.21752 -3.43933 -24.0718
ltibia 24.8991
lfoot -15.8619 4.74255
ltoes 3.03862
97
root 15.0193 18.0583 -9.8846 -0.936476 -48.2363 3.2814
lowerback 6.98092 -0.15968 -1.92779
upperback -1.21353 -0.387854 -0.0759852
thorax -5.16797 -0.135498 1.04835
lowerneck -22.9657 -3.94839 -10.1522
upperneck 27.3719 -3.86842 5.99115
head 13.3957 -1.99474 3.36343
rclavicle 5.83122e-014 -2.38542e-015
rhumerus -34.186 -10.5429 -84.3049
rradius 29.586
rwrist 11.7207
rhand -11.403 8.61921
rfingers 7.12502
rthumb 14.6323 -20.8446
lclavicle 5.83122e-014 -2.38542e-015
lhumerus -35.1936 5.41957 84.7302
lradius 30.2916
lwrist -10.5517
lhand -16.1905 26.4939
lfingers 7.12502
lthumb 10.0163 56.2356
rfemur -11.3465 4.20578 22.6254
rtibia 35.6742
rfoot -21.3999 -9.0149
rtoes 7.12432
lfemur -5.22561 -3.33439 -24.0388
ltibia 24.9908
lfoot -15.9556 4.60804
ltoes 2.6656
98
root 15.0017 18.0557 -9.88365 -0.96443 -48.2219 3.3129
lowerback 6.95856 -0.164551 -1.95073
upperback -1.21513 -0.394552 -0.0505587
thorax -5.15646 -0.137818 1.08828
lowerneck -22.85 -3.9106 -10.0973
upperneck 27.3656 -3.80878 5.86763
head 13.3591 -1.98192 3.31548
rclavicle 3.56073e-014 -6.75868e-015
rhumerus -34.2672 -10.5026 -84.2715
rradius 29.4861
rwrist 11.7639
rhand -11.5261 8.63069
rfingers 7.12502
rthumb 14.5136 -20.8417
lclavicle 3.56073e-014 -6.75868e-015
lhumerus -35.3303 5.74213 84.647
lradius 30.2585
lwrist -10.6272
lhand -16.0619 26.3497
lfingers 7.12502
lthumb 10.1405 56.0853
rfemur -11.2765 4.12281 22.6319
rtibia 35.6668
rfoot -21.5058 -8.92034
rtoes 7.22654
lfemur -5.21698 -3.3603 -24.0325
ltibia 25.0915
lfoot -15.9974 4.60757
ltoes 2.60762
99
root 14.9822 18.053 -9.88381 -0.937911 -48.2934 3.30131
lowerback 6.81964 -0.163077 -1.91744
upperback -1.17016 -0.383261 0.00236243
thorax -5.03082 -0.133987 1.12223
lowerneck -22.8074 -3.90295 -10.223
upperneck 27.3352 -3.74716 5.8517
head 13.3348 -1.97061 3.34099
rclavicle -2.86312e-014 -5.56597e-015
rhumerus -34.2529 -10.4628 -84.1857
rradius 29.3955
rwrist 11.8407
rhand -11.3911 8.75034
rfingers 7.12502
rthumb 14.6437 -20.7126
lclavicle -2.86312e-014 -5.56597e-015
lhumerus -35.4276 6.0868 84.5733
lradius 30.324
lwrist -10.7458
lhand -15.7152 26.4007
lfingers 7.12502
lthumb 10.4749 56.1198
rfemur -11.2441 4.08536 22.668
rtibia 35.6703
rfoot -21.6107 -8.8434
rtoes 7.31925
lfemur -5.2223 -3.51435 -24.012
ltibia 25.1748
lfoot -16.0236 4.81114
ltoes 2.61087
